<svg aria-hidden="true" style="position: absolute; width: 0; height: 0; overflow: hidden;" version="1.1" xmlns="http://www.w3.org/2000/svg" xmlns:xlink="http://www.w3.org/1999/xlink">
<defs>
<symbol id="icon-right-orange-arrow" viewBox="0 0 32 32">
<path fill="#ff6b09" style="fill: var(--color1, #ff6b09)" d="M32 16c0 8.837-7.163 16-16 16s-16-7.163-16-16c0-8.837 7.163-16 16-16s16 7.163 16 16z"></path>
<path fill="#fff" style="fill: var(--color2, #fff)" d="M13.273 12.327l1.127-1.127 4.8 4.8-4.8 4.8-1.127-1.129 3.663-3.671-3.663-3.673z"></path>
</symbol>
<symbol id="icon-left-arrow" viewBox="0 0 32 32">
<path  d="M0 16c0 8.837 7.163 16 16 16s16-7.163 16-16c0-8.837-7.163-16-16-16s-16 7.163-16 16z"></path>
<path fill="#000" style="fill: var(--color3, #000)" d="M18.729 12.327l-1.129-1.127-4.8 4.8 4.8 4.8 1.129-1.129-3.664-3.671 3.664-3.673z"></path>
</symbol>
<symbol id="icon-right-arrow" viewBox="0 0 32 32">
<path  d="M32 16c0 8.837-7.163 16-16 16s-16-7.163-16-16c0-8.837 7.163-16 16-16s16 7.163 16 16z"></path>
<path fill="#000" style="fill: var(--color3, #000)" d="M13.273 12.327l1.127-1.127 4.8 4.8-4.8 4.8-1.127-1.129 3.663-3.671-3.663-3.673z"></path>
</symbol>
<symbol id="icon-return-arrow" viewBox="0 0 32 32">
<path d="M6.667 16h-5.333l6.667 6.667 6.667-6.667h-5.333c0-4.413 3.587-8 8-8s8 3.587 8 8-3.587 8-8 8v2.667c5.893 0 10.667-4.773 10.667-10.667s-4.773-10.667-10.667-10.667-10.667 4.773-10.667 10.667z"></path>
</symbol>
<symbol id="icon-search" viewBox="0 0 32 32">
<path d="M20.667 18.667h-1.053l-0.373-0.36c1.301-1.502 2.093-3.475 2.093-5.634 0-0.002 0-0.004 0-0.006v0c0-4.786-3.88-8.667-8.667-8.667s-8.667 3.88-8.667 8.667c0 4.786 3.88 8.667 8.667 8.667v0c2.147 0 4.12-0.787 5.64-2.093l0.36 0.373v1.053l6.667 6.653 1.987-1.987-6.653-6.667zM12.667 18.667c-3.32 0-6-2.68-6-6s2.68-6 6-6 6 2.68 6 6-2.68 6-6 6z"></path>
</symbol>
<symbol id="icon-user-profile" viewBox="0 0 32 32">
<path d="M29.474 32h-3.242c0-5.47-4.589-9.92-10.232-9.92s-10.23 4.451-10.23 9.92h-3.242c0-7.259 6.045-13.162 13.472-13.162 7.429 0 13.474 5.902 13.474 13.162zM16 17.786c-4.907-0.008-8.883-3.985-8.89-8.892v-0.001c0.005-4.909 3.982-8.887 8.891-8.893h0c4.91 0.005 8.889 3.983 8.894 8.892v0.001c-0.005 4.91-3.985 8.889-8.896 8.893h-0zM16 3.242c-3.119 0.005-5.645 2.532-5.648 5.651v0c0.004 3.118 2.53 5.645 5.648 5.65h0c3.12-0.002 5.649-2.53 5.653-5.649v-0c-0.005-3.119-2.532-5.646-5.651-5.65h-0z"></path>
</symbol>
<symbol id="icon-Burger" viewBox="0 0 32 32">
<path d="M1 26h30v-3.334h-30v3.334zM1 17.666h30v-3.332h-30v3.332zM1 6v3.334h30v-3.334h-30z"></path>
</symbol>
</defs>
</svg>
