<!-- Generated by IcoMoon.io -->
<svg version="1.1" xmlns="http://www.w3.org/2000/svg" width="32" height="32" viewBox="0 0 32 32">
<title>user-profile</title>
<path d="M29.474 32h-3.242c0-5.47-4.589-9.92-10.232-9.92s-10.23 4.451-10.23 9.92h-3.242c0-7.259 6.045-13.162 13.472-13.162 7.429 0 13.474 5.902 13.474 13.162zM16 17.786c-4.907-0.008-8.883-3.985-8.89-8.892v-0.001c0.005-4.909 3.982-8.887 8.891-8.893h0c4.91 0.005 8.889 3.983 8.894 8.892v0.001c-0.005 4.91-3.985 8.889-8.896 8.893h-0zM16 3.242c-3.119 0.005-5.645 2.532-5.648 5.651v0c0.004 3.118 2.53 5.645 5.648 5.65h0c3.12-0.002 5.649-2.53 5.653-5.649v-0c-0.005-3.119-2.532-5.646-5.651-5.65h-0z"></path>
</svg>
